<mxfile host="app.diagrams.net" modified="2022-02-03T07:59:37.184Z" agent="5.0 (Macintosh; Intel Mac OS X 10_15_7) AppleWebKit/537.36 (KHTML, like Gecko) Chrome/97.0.4692.99 Safari/537.36" etag="IJ0a1QF05rBfCpRxLsvm" version="16.5.2" type="github">
  <diagram id="C5RBs43oDa-KdzZeNtuy" name="Page-1">
    <mxGraphModel dx="1577" dy="1077" grid="1" gridSize="10" guides="1" tooltips="1" connect="1" arrows="1" fold="1" page="1" pageScale="1" pageWidth="827" pageHeight="1169" math="0" shadow="0">
      <root>
        <mxCell id="WIyWlLk6GJQsqaUBKTNV-0" />
        <mxCell id="WIyWlLk6GJQsqaUBKTNV-1" parent="WIyWlLk6GJQsqaUBKTNV-0" />
        <mxCell id="Eh_68Jnp5_hbhntwNQ5s-2" style="edgeStyle=orthogonalEdgeStyle;rounded=0;orthogonalLoop=1;jettySize=auto;html=1;entryX=0.5;entryY=0;entryDx=0;entryDy=0;" edge="1" parent="WIyWlLk6GJQsqaUBKTNV-1" source="WIyWlLk6GJQsqaUBKTNV-3" target="Eh_68Jnp5_hbhntwNQ5s-0">
          <mxGeometry relative="1" as="geometry" />
        </mxCell>
        <mxCell id="WIyWlLk6GJQsqaUBKTNV-3" value="Start" style="rounded=1;whiteSpace=wrap;html=1;fontSize=12;glass=0;strokeWidth=1;shadow=0;" parent="WIyWlLk6GJQsqaUBKTNV-1" vertex="1">
          <mxGeometry x="80" y="40" width="120" height="40" as="geometry" />
        </mxCell>
        <mxCell id="Eh_68Jnp5_hbhntwNQ5s-4" value="" style="edgeStyle=orthogonalEdgeStyle;rounded=0;orthogonalLoop=1;jettySize=auto;html=1;" edge="1" parent="WIyWlLk6GJQsqaUBKTNV-1" source="Eh_68Jnp5_hbhntwNQ5s-0" target="Eh_68Jnp5_hbhntwNQ5s-3">
          <mxGeometry relative="1" as="geometry" />
        </mxCell>
        <mxCell id="Eh_68Jnp5_hbhntwNQ5s-0" value="Number of books = 10" style="rounded=0;whiteSpace=wrap;html=1;" vertex="1" parent="WIyWlLk6GJQsqaUBKTNV-1">
          <mxGeometry x="80" y="160" width="120" height="60" as="geometry" />
        </mxCell>
        <mxCell id="Eh_68Jnp5_hbhntwNQ5s-6" value="" style="edgeStyle=orthogonalEdgeStyle;rounded=0;orthogonalLoop=1;jettySize=auto;html=1;" edge="1" parent="WIyWlLk6GJQsqaUBKTNV-1" source="Eh_68Jnp5_hbhntwNQ5s-3" target="Eh_68Jnp5_hbhntwNQ5s-5">
          <mxGeometry relative="1" as="geometry" />
        </mxCell>
        <mxCell id="Eh_68Jnp5_hbhntwNQ5s-3" value="Mom said, &quot;read all of your books&quot;" style="whiteSpace=wrap;html=1;rounded=0;" vertex="1" parent="WIyWlLk6GJQsqaUBKTNV-1">
          <mxGeometry x="80" y="300" width="120" height="60" as="geometry" />
        </mxCell>
        <mxCell id="Eh_68Jnp5_hbhntwNQ5s-8" value="" style="edgeStyle=orthogonalEdgeStyle;rounded=0;orthogonalLoop=1;jettySize=auto;html=1;" edge="1" parent="WIyWlLk6GJQsqaUBKTNV-1" source="Eh_68Jnp5_hbhntwNQ5s-5" target="Eh_68Jnp5_hbhntwNQ5s-7">
          <mxGeometry relative="1" as="geometry" />
        </mxCell>
        <mxCell id="Eh_68Jnp5_hbhntwNQ5s-5" value="Number of books read = 0" style="whiteSpace=wrap;html=1;rounded=0;" vertex="1" parent="WIyWlLk6GJQsqaUBKTNV-1">
          <mxGeometry x="80" y="440" width="120" height="60" as="geometry" />
        </mxCell>
        <mxCell id="Eh_68Jnp5_hbhntwNQ5s-11" value="" style="edgeStyle=orthogonalEdgeStyle;rounded=0;orthogonalLoop=1;jettySize=auto;html=1;" edge="1" parent="WIyWlLk6GJQsqaUBKTNV-1" source="Eh_68Jnp5_hbhntwNQ5s-7" target="Eh_68Jnp5_hbhntwNQ5s-10">
          <mxGeometry relative="1" as="geometry" />
        </mxCell>
        <mxCell id="Eh_68Jnp5_hbhntwNQ5s-15" value="No" style="edgeLabel;html=1;align=center;verticalAlign=middle;resizable=0;points=[];" vertex="1" connectable="0" parent="Eh_68Jnp5_hbhntwNQ5s-11">
          <mxGeometry x="-0.3091" relative="1" as="geometry">
            <mxPoint as="offset" />
          </mxGeometry>
        </mxCell>
        <mxCell id="Eh_68Jnp5_hbhntwNQ5s-17" value="" style="edgeStyle=orthogonalEdgeStyle;rounded=0;orthogonalLoop=1;jettySize=auto;html=1;" edge="1" parent="WIyWlLk6GJQsqaUBKTNV-1" source="Eh_68Jnp5_hbhntwNQ5s-7" target="Eh_68Jnp5_hbhntwNQ5s-16">
          <mxGeometry relative="1" as="geometry" />
        </mxCell>
        <mxCell id="Eh_68Jnp5_hbhntwNQ5s-20" value="Yes" style="edgeLabel;html=1;align=center;verticalAlign=middle;resizable=0;points=[];" vertex="1" connectable="0" parent="Eh_68Jnp5_hbhntwNQ5s-17">
          <mxGeometry x="-0.0857" relative="1" as="geometry">
            <mxPoint as="offset" />
          </mxGeometry>
        </mxCell>
        <mxCell id="Eh_68Jnp5_hbhntwNQ5s-7" value="Number of books = number of books read?" style="rhombus;whiteSpace=wrap;html=1;rounded=0;" vertex="1" parent="WIyWlLk6GJQsqaUBKTNV-1">
          <mxGeometry x="50" y="570" width="180" height="110" as="geometry" />
        </mxCell>
        <mxCell id="Eh_68Jnp5_hbhntwNQ5s-13" value="" style="edgeStyle=orthogonalEdgeStyle;rounded=0;orthogonalLoop=1;jettySize=auto;html=1;" edge="1" parent="WIyWlLk6GJQsqaUBKTNV-1" source="Eh_68Jnp5_hbhntwNQ5s-10" target="Eh_68Jnp5_hbhntwNQ5s-12">
          <mxGeometry relative="1" as="geometry" />
        </mxCell>
        <mxCell id="Eh_68Jnp5_hbhntwNQ5s-10" value="Read 1 unread book" style="whiteSpace=wrap;html=1;rounded=0;" vertex="1" parent="WIyWlLk6GJQsqaUBKTNV-1">
          <mxGeometry x="340" y="595" width="120" height="60" as="geometry" />
        </mxCell>
        <mxCell id="Eh_68Jnp5_hbhntwNQ5s-14" style="edgeStyle=orthogonalEdgeStyle;rounded=0;orthogonalLoop=1;jettySize=auto;html=1;" edge="1" parent="WIyWlLk6GJQsqaUBKTNV-1" source="Eh_68Jnp5_hbhntwNQ5s-12">
          <mxGeometry relative="1" as="geometry">
            <mxPoint x="140" y="570" as="targetPoint" />
            <Array as="points">
              <mxPoint x="600" y="543" />
              <mxPoint x="140" y="543" />
            </Array>
          </mxGeometry>
        </mxCell>
        <mxCell id="Eh_68Jnp5_hbhntwNQ5s-12" value="Number of books read = number of books read + 1" style="whiteSpace=wrap;html=1;rounded=0;" vertex="1" parent="WIyWlLk6GJQsqaUBKTNV-1">
          <mxGeometry x="540" y="595" width="120" height="60" as="geometry" />
        </mxCell>
        <mxCell id="Eh_68Jnp5_hbhntwNQ5s-19" style="edgeStyle=orthogonalEdgeStyle;rounded=0;orthogonalLoop=1;jettySize=auto;html=1;" edge="1" parent="WIyWlLk6GJQsqaUBKTNV-1" source="Eh_68Jnp5_hbhntwNQ5s-16" target="Eh_68Jnp5_hbhntwNQ5s-18">
          <mxGeometry relative="1" as="geometry" />
        </mxCell>
        <mxCell id="Eh_68Jnp5_hbhntwNQ5s-16" value="Report to mom that all the books have been read" style="whiteSpace=wrap;html=1;rounded=0;" vertex="1" parent="WIyWlLk6GJQsqaUBKTNV-1">
          <mxGeometry x="80" y="785" width="120" height="60" as="geometry" />
        </mxCell>
        <mxCell id="Eh_68Jnp5_hbhntwNQ5s-18" value="Finish" style="rounded=1;whiteSpace=wrap;html=1;" vertex="1" parent="WIyWlLk6GJQsqaUBKTNV-1">
          <mxGeometry x="80" y="930" width="120" height="60" as="geometry" />
        </mxCell>
      </root>
    </mxGraphModel>
  </diagram>
</mxfile>
